<?xml version="1.0" encoding="utf-8"?>
<!-- Uploaded to: SVG Repo, www.svgrepo.com, Generator: SVG Repo Mixer Tools -->
<svg fill="#000000" version="1.1" id="Layer_1" xmlns="http://www.w3.org/2000/svg" xmlns:xlink="http://www.w3.org/1999/xlink" 
	 width="800px" height="800px" viewBox="0 0 260 184" enable-background="new 0 0 260 184" xml:space="preserve">
<path d="M195.69,12.202c0,0-19.025,31.001-19.03,31.01c-2.952,4.81-10.696,1.602-9.27-3.93l8.36-32.52
	c-8.19-1.76-16.77-3.06-25.66-3.84c0,0-24.709,40.288-24.71,40.29c-1.078,1.758-3.226,2.719-5.257,2.341
	c-2.829-0.526-4.733-3.478-4.013-6.271l9.56-37.21c-9.55,0.16-18.82,0.95-27.72,2.24c0,0-23.88,38.91-23.88,38.91
	c-0.934,1.523-2.675,2.464-4.461,2.419c-3.221-0.081-5.592-3.234-4.789-6.349l7.61-29.6C30.66,21.502,2,45.772,2,73.812
	c0,2.16,0.17,4.3,0.5,6.41c2.11,13.29,14.04,22.85,27.5,22.85h81.69c-7.22,6.02-13.27,12.86-17.77,20.2
	c-6.95,11.337-11.135,26.519-6.767,39.639c4.953,14.875,21.914,23.552,36.576,16.721l87.2-40.67c13.01-6.07,18.79-21.5,12.9-34.35
	l-0.13-0.27c-0.2-0.43-0.41-0.85-0.63-1.27H230c13.46,0,25.39-9.56,27.49-22.85c0.34-2.11,0.51-4.25,0.51-6.41
	C258,47.632,233.01,24.742,195.69,12.202z M209.55,126.712l-87.2,40.67c-8.97,4.18-19.78,0.51-24.02-8.43
	c-0.03-0.05-0.06-0.11-0.09-0.17c-7.99-17.14,1.6-39.4,21.99-55.71c5.72-4.58,12.3-8.69,19.58-12.08
	c33.19-15.48,68.4-10.22,78.64,11.73c0.03,0.06,0.05,0.12,0.08,0.18c0.03,0.06,0.05,0.11,0.07,0.17
	C222.6,112.022,218.45,122.562,209.55,126.712z M114,135.704c2.761,0,5,2.239,5,5s-2.239,5-5,5s-5-2.239-5-5
	S111.239,135.704,114,135.704z M137.005,138.67c2.209,0,4,1.791,4,4s-1.791,4-4,4s-4-1.791-4-4S134.796,138.67,137.005,138.67z
	 M125.5,121.103c2.485,0,4.5,2.015,4.5,4.5s-2.015,4.5-4.5,4.5s-4.5-2.015-4.5-4.5S123.015,121.103,125.5,121.103z"/>
</svg>